<svg fill="#000000" width="50px" height="50px" viewBox="0 0 1.5 1.5" xmlns="http://www.w3.org/2000/svg"><path d="M1.063 0.25h-0.074A0.188 0.188 0 0 0 0.813 0.125h-0.125a0.188 0.188 0 0 0 -0.176 0.125H0.438a0.188 0.188 0 0 0 -0.188 0.188v0.75a0.188 0.188 0 0 0 0.188 0.188h0.625a0.188 0.188 0 0 0 0.188 -0.188V0.438a0.188 0.188 0 0 0 -0.188 -0.188m-0.438 0.063a0.063 0.063 0 0 1 0.063 -0.063h0.125a0.063 0.063 0 0 1 0.063 0.063v0.063h-0.25Zm0.5 0.875a0.063 0.063 0 0 1 -0.063 0.063H0.438a0.063 0.063 0 0 1 -0.063 -0.063V0.438a0.063 0.063 0 0 1 0.063 -0.063h0.063v0.063a0.063 0.063 0 0 0 0.063 0.063h0.375a0.063 0.063 0 0 0 0.063 -0.063V0.375h0.063a0.063 0.063 0 0 1 0.063 0.063Z"/></svg>