<svg xmlns="http://www.w3.org/2000/svg" style="display: none;">
  <symbol id="facebook" viewBox="0 0 24 24">
    <path d="M20.9,2H3.1A1.1,1.1,0,0,0,2,3.1V20.9A1.1,1.1,0,0,0,3.1,22h9.58V14.25h-2.6v-3h2.6V9a3.64,3.64,0,0,1,3.88-4,20.26,20.26,0,0,1,2.33.12v2.7H17.3c-1.26,0-1.5.6-1.5,1.47v1.93h3l-.39,3H15.8V22h5.1A1.1,1.1,0,0,0,22,20.9V3.1A1.1,1.1,0,0,0,20.9,2Z"/>
  </symbol>

  <symbol id="twitter" viewBox="0 0 24 24">
    <path d="M22,5.8a8.49,8.49,0,0,1-2.36.64,4.13,4.13,0,0,0,1.81-2.27,8.21,8.21,0,0,1-2.61,1,4.1,4.1,0,0,0-7,3.74A11.64,11.64,0,0,1,3.39,4.62a4.16,4.16,0,0,0-.55,2.07A4.09,4.09,0,0,0,4.66,10.1,4.05,4.05,0,0,1,2.8,9.59v.05a4.1,4.1,0,0,0,3.3,4A3.93,3.93,0,0,1,5,13.81a4.9,4.9,0,0,1-.77-.07,4.11,4.11,0,0,0,3.83,2.84A8.22,8.22,0,0,1,3,18.34a7.93,7.93,0,0,1-1-.06,11.57,11.57,0,0,0,6.29,1.85A11.59,11.59,0,0,0,20,8.45c0-.17,0-.35,0-.53A8.43,8.43,0,0,0,22,5.8Z"/>
  </symbol>

  <symbol id="telegram" viewBox="0 0 24 24">
    <path d="M10,0 C15.5228475,0 20,4.4771525 20,10 C20,15.5228475 15.5228475,20 10,20 C4.4771525,20 0,15.5228475 0,10 C0,4.4771525 4.4771525,0 10,0 Z M14.4415206,6 C14.060553,6.00676048 13.476055,6.20741135 10.663148,7.36249773 C9.67796175,7.7670526 7.70897661,8.60437935 4.75619264,9.87447795 C4.27670659,10.0627254 4.02553067,10.2468857 4.00266485,10.4269588 C3.95876487,10.7726802 4.46291296,10.8803081 5.09723696,11.0838761 C5.61440201,11.2498453 6.31007997,11.4440124 6.67173438,11.4517262 C6.99978943,11.4587234 7.36593635,11.3251987 7.77017511,11.051152 C10.5290529,9.21254679 11.9531977,8.28322679 12.0426094,8.26319203 C12.1056879,8.24905787 12.1930992,8.23128593 12.2523244,8.28325656 C12.3115496,8.33522719 12.3057275,8.43364956 12.299454,8.46005377 C12.2492926,8.67117474 9.65764825,10.998457 9.50849738,11.1513987 L9.43697409,11.2233057 C8.88741493,11.7661123 8.33196049,12.1205055 9.290333,12.7440164 C10.155665,13.3069957 10.6592923,13.6661378 11.5507686,14.2430701 C12.1204738,14.6117635 12.5671299,15.0489784 13.1553348,14.9955401 C13.4259939,14.9709508 13.705567,14.7196888 13.8475521,13.9703127 C14.1831052,12.1993135 14.8426779,8.36209709 14.9951103,6.78087197 C15.0084653,6.64233621 14.9916649,6.46503787 14.9781732,6.38720805 C14.9646815,6.30937823 14.9364876,6.19848702 14.8340164,6.11639754 C14.7126597,6.01917896 14.5253109,5.99867765 14.4415206,6 Z"/>
  </symbol>

  <symbol id="reddit" viewBox="0 0 24 24">
    <path d="M12.594 19.094c-0.863 0-1.556-0.694-1.556-1.538 0-0.862 0.694-1.556 1.556-1.556 0.85 0 1.538 0.694 1.538 1.556 0 0.85-0.694 1.538-1.538 1.538zM31.5 16c0 8.563-6.938 15.5-15.5 15.5s-15.5-6.938-15.5-15.5c0-8.563 6.938-15.5 15.5-15.5s15.5 6.938 15.5 15.5zM23.231 13.425c-0.587 0-1.106 0.244-1.488 0.625-1.4-0.969-3.287-1.594-5.381-1.663l1.087-4.894 3.463 0.781c0 0.85 0.694 1.538 1.537 1.538 0.863 0 1.556-0.706 1.556-1.556s-0.694-1.556-1.556-1.556c-0.606 0-1.125 0.363-1.381 0.863l-3.825-0.85c-0.188-0.050-0.381 0.088-0.431 0.275l-1.194 5.4c-2.075 0.088-3.944 0.706-5.344 1.675-0.381-0.4-0.919-0.637-1.506-0.637-2.181 0-2.894 2.931-0.9 3.925-0.069 0.313-0.106 0.637-0.106 0.969 0 3.287 3.7 5.95 8.25 5.95 4.569 0 8.269-2.663 8.269-5.95 0-0.331-0.038-0.675-0.119-0.988 1.956-1 1.237-3.906-0.931-3.906zM18.925 20.688c-1.137 1.137-4.756 1.119-5.85 0-0.137-0.137-0.381-0.137-0.519 0-0.156 0.156-0.156 0.4 0 0.538 1.425 1.425 5.456 1.425 6.888 0 0.156-0.138 0.156-0.381 0-0.538-0.138-0.137-0.381-0.137-0.519 0zM19.406 16c-0.85 0-1.538 0.694-1.538 1.556 0 0.85 0.694 1.538 1.538 1.538 0.863 0 1.556-0.694 1.556-1.538 0-0.862-0.688-1.556-1.556-1.556z"/>
  </symbol>

  <symbol id="whatsapp" viewBox="0 0 24 24">
    <path d="M11.42 9.49c-.19-.09-1.1-.54-1.27-.61s-.29-.09-.42.1-.48.6-.59.73-.21.14-.4 0a5.13 5.13 0 0 1-1.49-.92 5.25 5.25 0 0 1-1-1.29c-.11-.18 0-.28.08-.38s.18-.21.28-.32a1.39 1.39 0 0 0 .18-.31.38.38 0 0 0 0-.33c0-.09-.42-1-.58-1.37s-.3-.32-.41-.32h-.4a.72.72 0 0 0-.5.23 2.1 2.1 0 0 0-.65 1.55A3.59 3.59 0 0 0 5 8.2 8.32 8.32 0 0 0 8.19 11c.44.19.78.3 1.05.39a2.53 2.53 0 0 0 1.17.07 1.93 1.93 0 0 0 1.26-.88 1.67 1.67 0 0 0 .11-.88c-.05-.07-.17-.12-.36-.21z"/><path d="M13.29 2.68A7.36 7.36 0 0 0 8 .5a7.44 7.44 0 0 0-6.41 11.15l-1 3.85 3.94-1a7.4 7.4 0 0 0 3.55.9H8a7.44 7.44 0 0 0 5.29-12.72zM8 14.12a6.12 6.12 0 0 1-3.15-.87l-.22-.13-2.34.61.62-2.28-.14-.23a6.18 6.18 0 0 1 9.6-7.65 6.12 6.12 0 0 1 1.81 4.37A6.19 6.19 0 0 1 8 14.12z"/>
  </symbol>

  <symbol id="linkedin" viewBox="0 0 24 24">
    <path fill-rule="evenodd" clip-rule="evenodd" d="M3 1a2 2 0 00-2 2v10a2 2 0 002 2h10a2 2 0 002-2V3a2 2 0 00-2-2H3zm1.102 4.297a1.195 1.195 0 100-2.39 1.195 1.195 0 000 2.39zm1 7.516V6.234h-2v6.579h2zM6.43 6.234h2v.881c.295-.462.943-1.084 2.148-1.084 1.438 0 2.219.953 2.219 2.766 0 .087.008.484.008.484v3.531h-2v-3.53c0-.485-.102-1.438-1.18-1.438-1.079 0-1.17 1.198-1.195 1.982v2.986h-2V6.234z" fill="#000000"/>
  </symbol>

  <symbol id="messenger" viewBox="0 0 24 24">
    <path d='M3.683 16.418C1.436 14.722 0 12.14 0 9.248 0 4.14 4.477 0 10 0s10 4.14 10 9.248c0 5.107-4.477 9.248-10 9.248a10.77 10.77 0 0 1-2.96-.412l-3.357 1.891v-3.557zm5.25-9.703l-5.394 5.66 4.908-2.67 2.565 2.67 5.362-5.66-4.853 2.622-2.589-2.622z' />
  </symbol>

  <symbol id="tumblr" viewBox="0 0 24 24">
    <path d="M16.79,18a4.65,4.65,0,0,1-1.62.35,1.75,1.75,0,0,1-1.92-2V10.12h4v-3h-4V2H10.33a.15.15,0,0,0-.14.15A6.11,6.11,0,0,1,6.25,7.54v2.58h2v6.54c0,2.23,1.65,5.41,6,5.34,1.47,0,3.11-.64,3.47-1.17Z"/>
  </symbol>

  <symbol id="viber" viewBox="0 0 24 24">
    <path d="m20.19 2.337c-.595-.545-3.005-2.297-8.372-2.32 0 0-6.333-.379-9.418 2.452-1.716 1.716-2.317 4.229-2.386 7.346s-.146 8.959 5.485 10.547h.005l-.005 2.419s-.037.98.607 1.177c.778.244 1.238-.502 1.983-1.304.408-.441.97-1.087 1.397-1.58.6.059 1.296.092 2.001.092 1.827 0 3.602-.225 5.298-.649l-.15.032c.778-.253 5.18-.816 5.892-6.657.744-6.03-.354-9.834-2.337-11.555zm.652 11.115c-.607 4.875-4.173 5.185-4.829 5.395-1.432.364-3.076.572-4.769.572-.486 0-.968-.017-1.445-.051l.064.004s-2.438 2.939-3.197 3.703c-.248.248-.521.228-.516-.267 0-.323.019-4.018.019-4.018-4.767-1.322-4.491-6.298-4.435-8.897s.544-4.735 1.997-6.169c2.612-2.367 7.989-2.016 7.989-2.016 4.543.019 6.718 1.388 7.224 1.847 1.674 1.435 2.527 4.867 1.898 9.896zm-6.511-3.788v.014c0 .168-.136.304-.304.304-.163 0-.296-.128-.303-.289v-.001c.004-.042.007-.092.007-.141 0-.801-.649-1.45-1.45-1.45-.03 0-.06.001-.089.003h.004c-.161-.009-.288-.141-.288-.303 0-.168.136-.304.304-.304h.017-.001c.02-.001.045-.001.069-.001 1.126 0 2.038.912 2.038 2.038 0 .046-.002.092-.005.137v-.006zm.951.531c.047-1.988-1.195-3.544-3.553-3.718-.159-.011-.283-.143-.283-.303 0-.168.136-.304.304-.304.007 0 .015 0 .022.001h-.001.017c2.267 0 4.106 1.838 4.106 4.106 0 .081-.002.162-.007.242l.001-.011c-.004.165-.138.296-.303.296-.168 0-.304-.136-.304-.304 0-.003 0-.005 0-.008zm2.2.629v.002c0 .168-.136.304-.304.304s-.302-.135-.303-.301c-.024-3.822-2.573-5.903-5.662-5.925-.168 0-.303-.136-.303-.303s.136-.303.303-.303c3.459.024 6.239 2.411 6.267 6.525zm-.525 4.598v.009c-.506.891-1.453 1.875-2.428 1.561l-.009-.014c-1.832-.684-3.416-1.578-4.831-2.679l.041.03c-.743-.592-1.396-1.245-1.969-1.963l-.019-.025c-.509-.638-.986-1.352-1.402-2.106l-.04-.079c-.457-.746-.87-1.608-1.193-2.513l-.03-.098c-.314-.975.665-1.922 1.561-2.428h.009c.13-.083.288-.133.458-.133.267 0 .505.123.662.314l.001.002s.581.693.83 1.036c.234.319.549.83.712 1.115.094.147.149.327.149.52 0 .288-.124.547-.322.726l-.001.001-.562.45c-.155.15-.251.36-.251.592 0 .023.001.045.003.067v-.003c.579 1.903 2.048 3.372 3.91 3.941l.042.011c.019.002.042.003.064.003.232 0 .442-.096.592-.25l.45-.562c.18-.199.439-.323.727-.323.193 0 .372.056.524.152l-.004-.002c.813.463 1.516.972 2.157 1.549l-.011-.01c.192.154.313.389.313.652 0 .169-.05.326-.137.458l.002-.003z"/>
  </symbol>

  <symbol id="vk" viewBox="0 0 24 24">
    <path d="M15.07294,2H8.9375C3.33331,2,2,3.33331,2,8.92706V15.0625C2,20.66663,3.32294,22,8.92706,22H15.0625C20.66669,22,22,20.67706,22,15.07288V8.9375C22,3.33331,20.67706,2,15.07294,2Zm3.07287,14.27081H16.6875c-.55206,0-.71875-.44793-1.70831-1.4375-.86463-.83331-1.22919-.9375-1.44794-.9375-.30206,0-.38544.08332-.38544.5v1.3125c0,.35419-.11456.5625-1.04162.5625a5.69214,5.69214,0,0,1-4.44794-2.66668A11.62611,11.62611,0,0,1,5.35419,8.77081c0-.21875.08331-.41668.5-.41668H7.3125c.375,0,.51044.16668.65625.55212.70831,2.08331,1.91669,3.89581,2.40625,3.89581.1875,0,.27081-.08331.27081-.55206V10.10413c-.0625-.97913-.58331-1.0625-.58331-1.41663a.36008.36008,0,0,1,.375-.33337h2.29169c.3125,0,.41662.15625.41662.53125v2.89587c0,.3125.13544.41663.22919.41663.1875,0,.33331-.10413.67706-.44788a11.99877,11.99877,0,0,0,1.79169-2.97919.62818.62818,0,0,1,.63544-.41668H17.9375c.4375,0,.53125.21875.4375.53125A18.20507,18.20507,0,0,1,16.41669,12.25c-.15625.23956-.21875.36456,0,.64581.14581.21875.65625.64582,1,1.05207a6.48553,6.48553,0,0,1,1.22912,1.70837C18.77081,16.0625,18.5625,16.27081,18.14581,16.27081Z"/>
  </symbol>
</svg>